<svg id="Capa_1" data-name="Capa 1" xmlns="http://www.w3.org/2000/svg" viewBox="0 0 743.49 104.7"><defs><style>.cls-1{fill:#fff;}</style></defs><path class="cls-1" d="M128.3,201.63h72.78q23.07,0,31.69,8.66a27.89,27.89,0,0,1,8.63,20.31q0,17.4-16.19,27.73T181.1,268.66a113.9,113.9,0,0,1-16-1.06l-10.36,31.92h16.56l-1.21,3.56H95.32l1.05-3.56h12L139,205.18H127Zm38.13,62.26a25.54,25.54,0,0,0,6.35,1.06,10.64,10.64,0,0,0,9.38-5A50.74,50.74,0,0,0,188,247q2.52-8,7-20.43t4.42-15.35q0-6.06-9.61-6.06h-4.31Z" transform="translate(-95.32 -198.83)"/><path class="cls-1" d="M284.9,237.71q17.48,0,28.52,7.68t11,19.56q0,16.33-14.75,27.46t-36.84,11.12q-17,0-27.43-8.21A26,26,0,0,1,235,274q0-15.36,14.34-25.8T284.9,237.71Zm-14.07,62.57a6.59,6.59,0,0,0,4.57-1.59,13.1,13.1,0,0,0,3.07-4.39q1.27-2.79,6.2-18.27t6.92-21.37c1.34-3.93,2-6.76,2-8.47a4.74,4.74,0,0,0-1.63-3.56,5.62,5.62,0,0,0-4-1.51,6.3,6.3,0,0,0-5.11,2.34A20.34,20.34,0,0,0,279.6,250l-12.86,39.19a18.78,18.78,0,0,0-1.21,6,4.79,4.79,0,0,0,1.51,3.63A5.28,5.28,0,0,0,270.83,300.28Z" transform="translate(-95.32 -198.83)"/><path class="cls-1" d="M379.31,254.89q11.26-17,24.21-17a11.14,11.14,0,0,1,8.58,3.74,13.38,13.38,0,0,1,3.45,9.42,15.17,15.17,0,0,1-4,10.74,13.16,13.16,0,0,1-10.07,4.31q-9.68,0-12.25-10.29c-.61-2.26-1.44-3.4-2.5-3.4q-2.64,0-6.65,6.13t-7.65,17.25l-8.92,27.31H327.11l19.37-59.84H336.41l1.06-3h4.69a296.39,296.39,0,0,0,42.9-3.1l-5.9,17.47Z" transform="translate(-95.32 -198.83)"/><path class="cls-1" d="M479.55,240.21l-.91,3H465l-15.28,47.13a14,14,0,0,0-.68,3.86c0,1.46.65,2.19,2,2.19q2.72,0,7-4.73t7.48-14.33l3.26.9q-7.65,25.28-30.41,25.27-10.9,0-17-4.08A13,13,0,0,1,415.24,288a33.12,33.12,0,0,1,1.89-10.14l11.28-34.64h-9.08l1.06-3q23.67-.37,51.59-27.46h2.95l-8.85,27.46Z" transform="translate(-95.32 -198.83)"/><path class="cls-1" d="M492.86,240.21l4.24-12.86a45.69,45.69,0,0,1,5.44-11.08,37.56,37.56,0,0,1,7.8-8.51,31.57,31.57,0,0,1,9.49-5.22,32.46,32.46,0,0,1,10.55-1.74q8.4,0,13.66,4.16a12.94,12.94,0,0,1,5.26,10.59,13.49,13.49,0,0,1-3.94,9.68,12.72,12.72,0,0,1-9.53,4.09,13.78,13.78,0,0,1-9.87-3.94,12.52,12.52,0,0,1-4.13-9.38q0-8.16,7.95-11.65l-.3-.3a13.76,13.76,0,0,0-10.14,5.48,19.65,19.65,0,0,0-3.71,12.22q0,8.25,5.37,13.35t14,5.11h5.9l-.91,3H528.34L509,303.08H472.43L492,243.24H482.8l1.13-3Z" transform="translate(-95.32 -198.83)"/><path class="cls-1" d="M584.7,237.71q17.47,0,28.52,7.68t11,19.56q0,16.33-14.76,27.46t-36.84,11.12q-17,0-27.42-8.21A25.93,25.93,0,0,1,534.85,274q0-15.36,14.33-25.8T584.7,237.71Zm-14.07,62.57a6.63,6.63,0,0,0,4.58-1.59,13.23,13.23,0,0,0,3.06-4.39q1.29-2.79,6.2-18.27t6.93-21.37c1.33-3.93,2-6.76,2-8.47a4.71,4.71,0,0,0-1.63-3.56,5.6,5.6,0,0,0-4-1.51,6.27,6.27,0,0,0-5.1,2.34,20.14,20.14,0,0,0-3.3,6.51l-12.86,39.19a19.05,19.05,0,0,0-1.21,6,4.8,4.8,0,0,0,1.52,3.63A5.27,5.27,0,0,0,570.63,300.28Z" transform="translate(-95.32 -198.83)"/><path class="cls-1" d="M696.28,198.83l-29,89.19a13.52,13.52,0,0,0-.76,3.94c0,1.21.58,1.81,1.74,1.81s2.7-1.47,5.07-4.42a41,41,0,0,0,5.9-10.1l3.1,1.21q-5.22,11.79-12.59,17.43t-18,5.64q-9.24,0-14.94-3.86t-5.72-9.91c0-1.31.79-4.36,2.35-9.15l24.66-75.88h-10l1.14-3.1h4Q678.2,201.63,696.28,198.83Z" transform="translate(-95.32 -198.83)"/><path class="cls-1" d="M743.19,237.56,732,272.06q-5.67,17.55-5.82,18.19A7.25,7.25,0,0,0,726,292c0,1.21.57,1.81,1.74,1.81s2.87-1.46,5.14-4.39a40.73,40.73,0,0,0,5.67-10.13l3.1,1.21q-9.45,23.07-30,23.07-8.92,0-14.86-3.74t-5.94-9.12a32.9,32.9,0,0,1,2.12-9.76l12.33-37.67H695.07l.91-3h4.31A339.87,339.87,0,0,0,743.19,237.56Zm-8-37.37q7.41,0,12.07,3.18t4.65,8.17q0,5.44-6.74,9.76A27.47,27.47,0,0,1,730,225.61q-7.34,0-12.1-3.14t-4.77-7.83q0-5.59,6.66-10A27.11,27.11,0,0,1,735.17,200.19Z" transform="translate(-95.32 -198.83)"/><path class="cls-1" d="M799.25,237.71q17.47,0,28.52,7.68t11,19.56q0,16.33-14.75,27.46t-36.84,11.12q-17,0-27.43-8.21A26,26,0,0,1,749.39,274q0-15.36,14.34-25.8T799.25,237.71Zm-14.08,62.57a6.6,6.6,0,0,0,4.58-1.59,13,13,0,0,0,3.06-4.39Q794.1,291.51,799,276t6.92-21.37c1.34-3.93,2-6.76,2-8.47a4.74,4.74,0,0,0-1.63-3.56,5.62,5.62,0,0,0-4-1.51,6.3,6.3,0,0,0-5.11,2.34A20.14,20.14,0,0,0,794,250l-12.86,39.19a18.78,18.78,0,0,0-1.21,6,4.79,4.79,0,0,0,1.51,3.63A5.27,5.27,0,0,0,785.17,300.28Z" transform="translate(-95.32 -198.83)"/></svg>